<svg
  xmlns="http://www.w3.org/2000/svg"
  version="1.1"
  x="0px"
  y="0px"
  enable-background="new 0 0 90 90"
  viewBox="0 0 100 100"
  xml:space="preserve"
>
  <path d="m 78.4509,88.002526 c -2.14774,-0.910662 -3.725561,-1.926048 -5.642845,-2.875734 -6.073893,-3.00269 -12.204634,-0.549149 -14.456787,5.86725 -0.627867,1.763075 -1.241227,3.785621 -1.861225,5.565179 -0.230941,0.687154 -0.561342,0.959927 -1.335563,0.939741 -3.614751,-0.05949 -7.2191,-0.06611 -10.833671,-0.01921 -0.83847,0.0057 -1.149414,-0.330976 -1.38381,-1.076248 -0.620296,-1.92235 -1.258412,-4.086663 -1.935313,-5.989635 -2.057064,-5.741904 -8.166603,-8.287351 -13.686617,-5.711592 -1.866427,0.874264 -3.873151,2.022916 -5.78902,2.82137 C 21.13396,87.68739 20.378688,87.567267 20.072441,87.27482 17.452035,84.739048 14.882899,82.145239 12.348226,79.503489 12.06015,79.212446 11.950948,78.445186 12.114248,78.0609 12.819137,76.368945 13.865632,74.57429 14.686845,72.938254 17.801057,66.795699 15.100401,60.567269 8.6040382,58.269572 6.6692174,57.594091 5.244319,57.03766 3.2362489,56.07123 2.8736169,55.896706 2.6062114,55.564623 2.537047,55.133319 2.496464,50.933381 2.578423,48.292924 2.5,44.06551 2.50507,43.648533 2.8422324,43.267441 3.2692633,43.146829 5.2452124,42.380073 7.5384575,41.762842 9.5212237,41.046638 15.260385,38.991093 17.79165,32.873282 15.197614,27.348091 c 0,0 -1.820776,-3.650738 -2.708907,-5.362895 -0.436755,-0.862317 -0.402393,-1.429521 0.329238,-2.134298 2.501296,-2.397197 4.975812,-4.819816 7.383528,-7.298911 0.690468,-0.722204 1.233562,-0.670213 2.009042,-0.288236 1.935013,0.958089 4.023543,2.180832 6.00193,3.019678 5.340711,2.264518 11.227666,-0.384064 13.173987,-5.8611152 0.751947,-2.1031332 1.077434,-4.0068579 2.089027,-6.090101 0.176728,-0.3639469 0.26689,-0.7017891 0.8717,-0.7835635 3.908174,-0.060618 7.525767,-0.06898 11.568596,0 0.313777,0.0095 0.756858,0.4478971 0.900717,0.7872658 0.751632,1.9780338 1.36935,4.2641424 2.084468,6.2454945 2.048855,5.6623164 8.156555,8.2085024 13.590835,5.6880744 1.87451,-0.867775 3.883285,-2.038708 5.78984,-2.841155 0.424877,-0.166922 1.249754,-0.03778 1.576101,0.266363 2.588532,2.511327 5.124591,5.061391 7.612034,7.670603 0.318496,0.333662 0.432107,1.149644 0.250687,1.576366 -0.722507,1.740786 -1.805024,3.56759 -2.639064,5.244795 -2.96978,5.989367 -0.457436,12.138748 5.874611,14.332598 1.717321,0.592975 3.692454,1.197925 5.436947,1.78278 0.774455,0.251748 1.12093,0.630119 1.106645,1.529546 -0.077,3.548667 -0.08433,7.106539 -0.04983,10.67278 0.01332,0.834506 -0.281496,1.170855 -1.047043,1.413953 -1.970567,0.625178 -4.180946,1.305181 -6.122084,1.989333 -5.647841,2.049133 -8.164447,8.154578 -5.63679,13.623652 0.870781,1.863994 2.023443,3.870751 2.822386,5.778095 0.177148,0.397302 0.05946,1.160608 -0.218996,1.458531 -2.752805,2.826966 -6.363365,7.529371 -7.120647,8.102744 C 79.36929,88.443841 78.4509,88.002526 78.4509,88.002526 Z M 44.183933,63.53393 c 7.439368,3.206091 16.046478,-0.268553 19.306529,-7.768528 3.243746,-7.480383 -0.234232,-16.132244 -7.794852,-19.377804 -7.490896,-3.216003 -16.079438,0.29303 -19.353588,7.891779 -3.191235,7.400552 0.32017,16.026817 7.841914,19.254562 z"/>
</svg>
