<svg
  xmlns="http://www.w3.org/2000/svg"
  version="1.1"
  x="0px"
  y="0px"
  enable-background="new 0 0 90 90"
  viewBox="0 0 100 100"
  xml:space="preserve"
>
   <path d="m 41.3012,22.986825 8.58993,0.67044 8.58993,0.534989 c 2.055481,0.104757 2.324303,3.028326 0.322271,3.504858 l -6.66592,1.693167 c -2.304386,0.606158 -3.899188,2.700878 -3.867251,5.079504 v 3.267814 H 37.482598 C 24.143852,26.314796 3.4739904,35.120499 2.507722,52.637475 v 0 c -0.010296,0.112647 -0.010296,0.225991 0,0.338634 v 0.660336 0 l 0.1696163,26.26129 c 0.05157,13.258931 17.9887527,17.385094 23.8480487,5.485864 l 8.68661,-15.475811 H 64.78856 l 8.652687,15.492742 c 5.820701,12.006594 23.903866,7.852759 23.881971,-5.485863 l 0.169616,-25.076074 v -1.185217 0 -0.677267 c 0.0095,-0.09004 0.0095,-0.180856 0,-0.270907 C 96.60666,35.138205 75.875232,26.266127 62.517959,37.737597 H 51.696441 v -3.23395 c -0.0181,-0.812201 0.544234,-1.522764 1.339969,-1.693169 l 6.665919,-1.693167 c 5.59377,-1.536286 4.832103,-9.682581 -0.949851,-10.159008 l -8.589946,-0.670442 -8.589946,-0.534988 m 0,0 c -2.055481,-0.104756 -2.324303,-3.028325 -0.322271,-3.504858 l 6.66592,-1.693167 c 2.709267,-0.848314 3.764018,-3.024511 3.764018,-5.6856538 0,-1.85729 -3.378269,-1.7959916 -3.378269,0.00726 0.0181,1.1754348 -0.488981,2.0877948 -1.284716,2.2581998 l -6.665919,1.693166 c -5.59377,1.536285 -4.832103,9.68258 0.949851,10.159008 M 28.959221,55.339285 h -5.263253 v 5.416771 c 0,2.085919 -5.060911,2.076334 -5.060911,0 v -5.416771 h -5.263253 c -2.085905,0 -2.079764,-4.726353 0,-4.726353 h 5.263253 v -5.41677 c 0,-2.074653 5.060911,-2.076334 5.060911,0 v 5.41677 h 5.263253 c 2.078321,0 2.078321,4.726353 0,4.726353 z m 18.008644,6.278848 h -7.581031 c -2.021609,0 -2.021609,-3.027059 0,-3.027059 h 7.581031 c 2.021609,0 2.021609,3.027059 0,3.027059 z m 33.019098,-20.4942 c 3.778061,0 5.669437,4.559441 2.998267,7.225894 -2.671169,2.666454 -7.238674,0.778417 -7.238674,-2.992974 0,-2.337778 1.898494,-4.23292 4.240407,-4.23292 z m -19.37324,20.4942 h -7.581031 c -2.021609,0 -2.021609,-3.027059 0,-3.027059 h 7.581031 c 2.021609,0 2.021609,3.027059 0,3.027059 z m 10.588589,-3.56252 c -3.778061,0 -5.669437,-4.559441 -2.998268,-7.225894 2.67117,-2.666453 7.238675,-0.778417 7.238675,2.992974 0,2.337777 -1.898495,4.23292 -4.240407,4.23292 z m 8.784651,8.465839 c -3.778062,0 -5.669438,-4.55944 -2.998268,-7.225893 2.671169,-2.666454 7.238674,-0.778418 7.238674,2.992973 0,2.337778 -1.898494,4.23292 -4.240406,4.23292 z m 8.78465,-8.465839 c -3.778061,0 -5.669437,-4.559441 -2.998268,-7.225894 2.67117,-2.666453 7.238675,-0.778417 7.238675,2.992974 0,2.337777 -1.898495,4.23292 -4.240407,4.23292 z" />
</svg>
