<svg
  xmlns="http://www.w3.org/2000/svg"
  version="1.1"
  x="0px"
  y="0px"
  enable-background="new 0 0 90 90"
  viewBox="0 0 100 100"
  xml:space="preserve"
>
   <path d="M 50,2.5 C 23.766641,2.5 2.5,23.766641 2.5,50 v 0 c 0,26.233359 21.266641,47.5 47.5,47.5 v 0 C 76.233359,97.5 97.499999,76.233359 97.499999,50 v 0 C 97.499999,23.766641 76.233359,2.5 50,2.5 Z m -0.92002,13.954164 c 8.007786,0 13.175434,1.031463 19.120295,5.942793 1.810743,1.810745 3.875736,4.392502 4.909265,6.976324 3.100589,6.974257 1.03353,12.141905 -3.100588,17.053238 -3.361039,4.390432 -9.299698,8.268236 -12.143972,11.368823 -1.80661,2.327508 -2.666482,6.362048 -0.149429,9.451378 L 42.348206,67.106907 c 1.032941,-0.552079 1.648794,-3.815381 1.84408,-4.700527 1.787615,-8.10246 5.03153,-12.842904 9.78869,-16.496624 3.873669,-2.84014 7.751472,-5.940727 7.751472,-10.335295 0,-9.3059 -14.208963,-11.627208 -20.153825,-5.426029 -1.550295,1.550293 -3.356904,5.426029 -3.617354,8.009852 -2.160112,5.951887 -11.979791,3.693946 -11.885588,-1.550294 v -0.258383 c 0,-6.461627 3.100588,-10.593677 7.234706,-14.21103 3.100587,-3.100588 9.568414,-5.684411 15.769593,-5.684413 z M 43.578209,71.747991 H 56.497328 V 84.667109 H 43.578209 Z" />
</svg>
