<svg
  xmlns="http://www.w3.org/2000/svg"
  version="1.1"
  x="0px"
  y="0px"
  enable-background="new 0 0 90 90"
  viewBox="0 0 100 100"
  xml:space="preserve"
>
  <path d="m 65.174315,44.033978 c 0,1.934581 -1.555271,3.592793 -3.567974,3.592793 -2.012704,0 -3.476487,-1.658212 -3.476487,-3.592793 0,-1.934581 1.555271,-3.592792 3.567973,-3.592792 2.012704,0 3.476488,1.658211 3.476488,3.592792 z m -32.946616,-5.65486 c -3.02389,0 -5.615795,2.464938 -5.615795,5.65486 0,3.189922 2.447911,5.65486 5.615795,5.65486 3.167887,0 5.615796,-2.464938 5.615796,-5.65486 0,-3.189922 -2.591905,-5.65486 -5.615796,-5.65486 z m 48.90584,-15.213961 c 6.515598,8.568318 9.433659,17.734579 9.433659,27.550708 C 90.567198,75.256193 70.849009,95 46.588988,95 22.328969,95 2.5,75.144646 2.5,50.715865 2.5,26.287086 22.219115,6.5373482 46.588988,6.3201834 54.516217,6.2495464 66.644189,9.842301 73.587701,15.729636 L 76.55963,6.2276024 80.906181,12.449722 C 82.508469,9.589083 85.353466,6.4287523 87.470823,5 L 97.5,15.640018 c -7.412741,1.478053 -12.051418,3.731969 -16.366461,7.525139 z m -3.527172,20.980368 c 0,-4.908066 -3.98795,-8.923754 -8.862109,-8.923754 H 23.325955 c -4.874159,0 -8.862108,4.015688 -8.862108,8.923754 0,4.908066 3.987949,8.923755 8.862108,8.923755 h 45.418303 c 4.874159,0 8.862109,-4.015689 8.862109,-8.923755 z"/>
</svg>
