<svg
  xmlns="http://www.w3.org/2000/svg"
  version="1.1"
  x="0px"
  y="0px"
  enable-background="new 0 0 90 90"
  viewBox="0 0 100 100"
  xml:space="preserve"
>
   <path d="M 50,2.5 C 23.766462,2.5 2.5,23.766473 2.5,50 2.5,76.233537 23.766462,97.5 50,97.5 76.233537,97.5 97.5,76.233537 97.5,50 97.5,23.766473 76.233537,2.5 50,2.5 Z m 23.478307,30.615236 c 0.798458,-0.09717 1.736434,0.21945 2.127162,0.834958 0.501311,0.789749 0.193993,2.21364 -0.642787,2.736818 l -10.649066,6.653179 10.536413,6.553782 c 0.838002,0.521347 1.419089,1.500966 0.6958,2.756697 -0.723255,1.255696 -1.965082,1.137696 -2.803083,0.616282 L 59.761091,45.228795 c -1.252508,-0.779238 -1.252508,-2.997932 0,-3.777204 l 12.988281,-8.097796 c 0.209502,-0.130354 0.462782,-0.206184 0.728935,-0.238552 z m -43.914972,0.02002 c 1.702485,0.209271 3.417347,1.39843 4.797714,3.995883 2.629702,-5.124734 7.024952,-4.757281 9.674946,-2.10728 2.649988,2.649954 2.649991,6.945464 0,9.595421 l -8.395998,8.395998 c -0.662523,0.66249 -1.736366,0.66249 -2.398855,0 L 24.845145,44.61928 c -2.649991,-2.649954 -2.649991,-6.945464 0,-9.595421 1.324996,-1.325005 3.015709,-2.097891 4.71819,-1.888603 z M 20.981794,62.43178 c 0.657437,-0.07342 1.323077,0.264982 1.663295,0.914484 0.258163,0.492846 0.809971,1.405609 1.650042,2.597656 1.414075,2.006502 3.117196,4.017204 5.115794,5.891113 5.682119,5.3276 12.528766,8.508648 20.589075,8.508648 8.060309,0 14.906956,-3.181048 20.589075,-8.508648 1.998597,-1.873909 3.701719,-3.884611 5.115794,-5.891113 0.840072,-1.192047 1.391845,-2.10481 1.650042,-2.597656 0.453625,-0.865858 1.486298,-1.175042 2.306084,-0.695801 0.819677,0.479207 1.116325,1.56596 0.662666,2.431987 -0.328565,0.627207 -0.959276,1.673818 -1.89523,3.001884 -1.545989,2.19372 -3.403864,4.388234 -5.586285,6.4345 C 66.578389,80.39166 58.959993,83.928571 50,83.928571 c -8.959993,0 -16.578389,-3.536907 -22.842146,-9.409879 -2.182421,-2.046266 -4.040297,-4.240779 -5.586286,-6.434499 -0.935953,-1.328066 -1.5668,-2.374677 -1.895229,-3.001884 -0.453659,-0.866024 -0.157114,-1.95278 0.662668,-2.431987 0.204945,-0.119802 0.423641,-0.194207 0.642787,-0.21867 z" />
</svg>
